<svg width="45" height="45" viewBox="0 0 45 45" fill="none" xmlns="http://www.w3.org/2000/svg">
<path d="M1.875 3.75H7.5L13.125 24.375M13.125 24.375L11.25 31.875H39.375M13.125 24.375H35.625L41.25 7.5H8.52188L13.125 24.375ZM13.125 39.375C13.125 39.8723 12.9275 40.3492 12.5758 40.7008C12.2242 41.0525 11.7473 41.25 11.25 41.25C10.7527 41.25 10.2758 41.0525 9.92418 40.7008C9.57254 40.3492 9.375 39.8723 9.375 39.375C9.375 38.8777 9.57254 38.4008 9.92418 38.0492C10.2758 37.6975 10.7527 37.5 11.25 37.5C11.7473 37.5 12.2242 37.6975 12.5758 38.0492C12.9275 38.4008 13.125 38.8777 13.125 39.375ZM39.375 39.375C39.375 39.8723 39.1775 40.3492 38.8258 40.7008C38.4742 41.0525 37.9973 41.25 37.5 41.25C37.0027 41.25 36.5258 41.0525 36.1742 40.7008C35.8225 40.3492 35.625 39.8723 35.625 39.375C35.625 38.8777 35.8225 38.4008 36.1742 38.0492C36.5258 37.6975 37.0027 37.5 37.5 37.5C37.9973 37.5 38.4742 37.6975 38.8258 38.0492C39.1775 38.4008 39.375 38.8777 39.375 39.375Z" stroke="black" stroke-width="2" stroke-linecap="square"/>
</svg>
