<svg xmlns="http://www.w3.org/2000/svg" fill="none" display="block" overflow="visible" preserveAspectRatio="none" viewBox="0 0 841 236"><g fill="#fffeec" stroke="#1f1e1e"><path d="M96.947.5h604.654c13.46 0 25.214 9.112 28.569 22.148l35.268 137.046c4.805 18.668-9.293 36.853-28.569 36.853H51.848c-20.088 0-34.301-19.641-28.022-38.722l45.1-137.047A29.5 29.5 0 0 1 96.352.506z"/><path d="M97.332.5H701.85c13.511 0 25.295 9.178 28.603 22.277l28.598 113.254c4.706 18.636-9.381 36.723-28.601 36.723H60.2c-20.074 0-34.286-19.616-28.031-38.692L69.3 20.81A29.5 29.5 0 0 1 97.332.5Z"/></g></svg>