<svg width="45" height="45" viewBox="0 0 45 45" fill="none" xmlns="http://www.w3.org/2000/svg">
<path d="M2.23683 5.54089L1.85327 7.07573L2.62056 7.26733L7.94884 8.59975L10.533 12.4757L16.0209 28.9394L12.7826 35.4163H14.3494C14.1605 35.799 14.0623 36.22 14.0625 36.6468C14.0625 38.1908 15.331 39.4593 16.875 39.4593C18.419 39.4593 19.6875 38.1908 19.6875 36.6468C19.6875 36.2065 19.584 35.7888 19.4006 35.4163H28.4119C28.223 35.799 28.1248 36.22 28.125 36.6468C28.125 38.1908 29.3935 39.4593 30.9375 39.4593C32.4815 39.4593 33.75 38.1908 33.75 36.6468C33.75 36.2065 33.6465 35.7888 33.4631 35.4163H34.541V33.8343H15.3424L17.3639 29.7913H34.3201L40.4724 11.3343H11.6733L8.92618 7.21319L3.00437 5.73285L2.23683 5.54089ZM12.3476 12.9161H20.3027V16.9591H13.6953L12.3476 12.9161ZM21.8848 12.9161H28.7402V16.9591H21.8848V12.9161ZM30.3223 12.9161H38.2774L36.9297 16.9591H30.3223V12.9161ZM14.2225 18.5411H20.3027V22.5841H15.5702L14.2225 18.5411ZM21.8848 18.5411H28.7402V22.5841H21.8848V18.5411ZM30.3223 18.5411H36.4025L35.0548 22.5841H30.3223V18.5411ZM16.0975 24.1661H20.3027V28.2091H17.4451L16.0975 24.1661ZM21.8848 24.1661H28.7402V28.2091H21.8848V24.1661ZM30.3223 24.1661H34.5275L33.1799 28.2091H30.3223V24.1661ZM16.875 35.4161C17.5641 35.4161 18.1055 35.9576 18.1055 36.6466C18.1055 37.3357 17.5641 37.8771 16.875 37.8771C16.1859 37.8771 15.6445 37.3357 15.6445 36.6466C15.6445 35.9576 16.1859 35.4161 16.875 35.4161ZM30.9375 35.4161C31.6266 35.4161 32.168 35.9576 32.168 36.6466C32.168 37.3357 31.6266 37.8771 30.9375 37.8771C30.2484 37.8771 29.707 37.3357 29.707 36.6466C29.707 35.9576 30.2484 35.4161 30.9375 35.4161Z" fill="black"/>
</svg>
